<svg viewBox="0 0 100 100" xmlns="http://www.w3.org/2000/svg">
  <rect width="100" height="100" rx="16" fill="#07090a"/>
  <line x1="18" y1="15" x2="18" y2="85" stroke="#D4A017" stroke-width="5" stroke-linecap="round"/>
  <line x1="18" y1="18" x2="55" y2="18" stroke="#D4A017" stroke-width="4.5" stroke-linecap="round"/>
  <line x1="55" y1="18" x2="66" y2="18" stroke="#D4A017" stroke-width="3" stroke-linecap="round" opacity="0.5"/>
  <line x1="66" y1="18" x2="73" y2="18" stroke="#D4A017" stroke-width="2" stroke-linecap="round" opacity="0.3"/>
  <circle cx="78" cy="18" r="2.5" fill="#D4A017" opacity="0.3"/>
  <circle cx="83" cy="18" r="1.5" fill="#D4A017" opacity="0.18"/>
  <line x1="18" y1="50" x2="45" y2="50" stroke="#D4A017" stroke-width="4.5" stroke-linecap="round"/>
  <line x1="45" y1="50" x2="55" y2="50" stroke="#D4A017" stroke-width="3" stroke-linecap="round" opacity="0.5"/>
  <line x1="55" y1="50" x2="62" y2="50" stroke="#D4A017" stroke-width="2" stroke-linecap="round" opacity="0.3"/>
  <circle cx="67" cy="50" r="2.5" fill="#D4A017" opacity="0.3"/>
  <circle cx="72" cy="50" r="1.5" fill="#D4A017" opacity="0.18"/>
  <line x1="18" y1="82" x2="55" y2="82" stroke="#D4A017" stroke-width="4.5" stroke-linecap="round"/>
  <line x1="55" y1="82" x2="66" y2="82" stroke="#D4A017" stroke-width="3" stroke-linecap="round" opacity="0.5"/>
  <line x1="66" y1="82" x2="73" y2="82" stroke="#D4A017" stroke-width="2" stroke-linecap="round" opacity="0.3"/>
  <circle cx="78" cy="82" r="2.5" fill="#D4A017" opacity="0.3"/>
  <circle cx="83" cy="82" r="1.5" fill="#D4A017" opacity="0.18"/>
</svg>
